<svg width="833" height="718" viewBox="0 0 833 718" fill="none" xmlns="http://www.w3.org/2000/svg">
<g clip-path="url(#clip0_1_7)">
<path d="M77.6211 596.383H745.515C793.839 596.383 823.137 567.132 823.137 518.803V97.793C823.137 49.4166 793.839 20.1655 745.515 20.1655H77.6211C29.2485 20.1655 0 49.4166 0 97.793V518.803C0 567.132 29.2485 596.383 77.6211 596.383ZM81.0387 538.975C66.4941 538.975 57.4519 529.931 57.4519 515.336V101.211C57.4519 86.6652 66.4941 77.6222 81.0387 77.6222H742.051C756.641 77.6222 765.685 86.6652 765.685 101.211V515.336C765.685 529.931 756.641 538.975 742.051 538.975H81.0387ZM301.698 678.211H521.436V590.102H301.698V678.211ZM298.857 718H524.278C539.357 718 551.603 705.778 551.603 690.941C551.603 675.882 539.357 663.442 524.278 663.442H298.857C283.731 663.442 271.534 675.882 271.534 690.941C271.534 705.778 283.731 718 298.857 718Z" fill="white" fill-opacity="0.85"/>
<g clip-path="url(#clip1_1_7)">
<path d="M350.644 450.002H492.047C513.757 450.002 525.69 437.738 525.69 414.359V306.563C525.69 283.342 513.757 271.077 492.047 271.077H350.644C328.837 271.077 317 283.342 317 306.563V414.359C317 437.738 328.837 450.002 350.644 450.002ZM344.535 282.198H369.188V233.912C369.188 197.46 392.383 176.549 421.297 176.549C450.17 176.549 473.639 197.46 473.639 233.912V282.198H498.272V236.128C498.272 182.165 462.713 153 421.297 153C379.956 153 344.535 182.165 344.535 236.128V282.198Z" fill="white" fill-opacity="0.85"/>
</g>
</g>
<defs>
<clipPath id="clip0_1_7">
<rect width="833" height="718" fill="white"/>
</clipPath>
<clipPath id="clip1_1_7">
<rect width="213" height="305" fill="white" transform="translate(317 153)"/>
</clipPath>
</defs>
</svg>
